# 3ds Max Wavefront OBJ Exporter v0.97b - (c)2007 guruware
# File Created: 27.05.2018 11:47:54

#
# object Box054
#

v  2.0426 0.0000 -0.0017
v  2.1377 0.0000 -0.0017
v  2.1377 3.5000 -0.0017
v  2.0426 3.5000 -0.0017
v  2.1377 0.0000 -0.0935
v  2.1377 3.5000 -0.0935
v  2.0426 0.0000 -0.0935
v  2.0426 3.5000 -0.0935
v  0.0000 0.0000 -0.0951
v  0.0000 0.0000 0.0000
v  -0.0000 3.5000 0.0000
v  -0.0000 3.5000 -0.0951
v  0.0918 0.0000 0.0000
v  0.0918 3.5000 0.0000
v  0.0918 0.0000 -0.0951
v  0.0918 3.5000 -0.0951
v  0.0244 2.8206 0.0356
v  0.0244 2.8206 -0.0151
v  4.1122 2.8206 -0.0151
v  4.1122 2.8206 0.0356
v  0.0244 3.5080 0.0356
v  4.1122 3.5080 0.0356
v  4.1122 3.5080 -0.0151
v  0.0244 3.5080 -0.0151
# 24 vertices

vn -0.7071 0.0000 0.7071
vn 0.7071 0.0000 0.7071
vn 0.7071 0.0000 -0.7071
vn -0.7071 0.0000 -0.7071
vn -0.7071 -0.0000 -0.7071
vn -0.7071 -0.0000 0.7071
vn -0.5774 -0.5774 0.5774
vn -0.5774 -0.5774 -0.5774
vn 0.5774 -0.5774 -0.5774
vn 0.5774 -0.5774 0.5774
vn -0.5774 0.5774 0.5774
vn 0.5774 0.5774 0.5774
vn 0.5774 0.5774 -0.5774
vn -0.5774 0.5774 -0.5774
# 14 vertex normals

vt 0.0488 0.1964 0.0000
vt 0.0562 0.1964 0.0000
vt 0.0562 0.4672 0.0000
vt 0.0488 0.4672 0.0000
vt 0.0633 0.1964 0.0000
vt 0.0633 0.4672 0.0000
vt 0.0344 0.1964 0.0000
vt 0.0417 0.1964 0.0000
vt 0.0417 0.4672 0.0000
vt 0.0344 0.4672 0.0000
vt 0.9559 0.7755 0.0000
vt 0.9534 0.7755 0.0000
vt 0.9533 0.5675 0.0000
vt 0.9559 0.5675 0.0000
vt 0.9157 0.7755 0.0000
vt 0.9157 0.5675 0.0000
vt 0.9183 0.5675 0.0000
vt 0.9182 0.7755 0.0000
vt 0.9533 0.5649 0.0000
vt 0.9183 0.5649 0.0000
vt 0.9535 0.7781 0.0000
vt 0.9181 0.7781 0.0000
vt 0.9909 0.5675 0.0000
vt 0.9909 0.7755 0.0000
# 24 texture coords

o Box054
g Box054
s 8
f 1/1/1 2/2/2 3/3/2 4/4/1 
s 16
f 2/2/2 5/5/3 6/6/3 3/3/2 
s 32
f 5/7/3 7/8/4 8/9/4 6/10/3 
s 64
f 7/8/4 1/1/1 4/4/1 8/9/4 
s 8
f 9/1/5 10/2/6 11/3/6 12/4/5 
s 16
f 10/2/6 13/5/2 14/6/2 11/3/6 
s 32
f 13/7/2 15/8/3 16/9/3 14/10/2 
s 64
f 15/8/3 9/1/5 12/4/5 16/9/3 
s 2
f 17/11/7 18/12/8 19/13/9 20/14/10 
s 4
f 21/15/11 22/16/12 23/17/13 24/18/14 
s 16
f 20/19/10 19/13/9 23/17/13 22/20/12 
s 32
f 19/13/9 18/12/8 24/18/14 23/17/13 
s 64
f 18/12/8 17/21/7 21/22/11 24/18/14 
s off
f 20/14/10 22/23/12 21/24/11 17/11/7 
# 14 polygons

