# 3ds Max Wavefront OBJ Exporter v0.97b - (c)2007 guruware
# File Created: 27.05.2018 11:53:47

#
# object Box118
#

v  0.0203 0.0538 0.0173
v  0.0203 0.0538 -0.0334
v  6.0203 0.0538 -0.0334
v  6.0203 0.0538 0.0173
v  0.0203 3.5080 0.0173
v  6.0203 3.5080 0.0173
v  6.0203 3.5080 -0.0334
v  0.0203 3.5080 -0.0334
v  -0.0000 -0.0000 -0.0951
v  -0.0000 -0.0000 0.0000
v  -0.0000 3.5000 0.0000
v  -0.0000 3.5000 -0.0951
v  0.0918 -0.0000 0.0000
v  0.0918 3.5000 0.0000
v  0.0918 -0.0000 -0.0951
v  0.0918 3.5000 -0.0951
v  4.0918 -0.0000 -0.0443
v  4.0918 -0.0000 -0.1394
v  4.0918 3.5000 -0.1394
v  4.0918 3.5000 -0.0443
v  4.0000 -0.0000 -0.1394
v  4.0000 3.5000 -0.1394
v  4.0000 -0.0000 -0.0443
v  4.0000 3.5000 -0.0443
v  2.0713 -0.0000 -0.1156
v  1.9762 -0.0000 -0.1156
v  1.9762 3.5000 -0.1156
v  2.0713 3.5000 -0.1156
v  1.9762 -0.0000 -0.0238
v  1.9762 3.5000 -0.0238
v  2.0713 -0.0000 -0.0238
v  2.0713 3.5000 -0.0238
# 32 vertices

vn -0.5774 -0.5774 0.5774
vn -0.5774 -0.5774 -0.5774
vn 0.5774 -0.5774 -0.5774
vn 0.5774 -0.5774 0.5774
vn -0.5774 0.5774 0.5774
vn 0.5774 0.5774 0.5774
vn 0.5774 0.5774 -0.5774
vn -0.5774 0.5774 -0.5774
vn -0.7071 0.0000 -0.7071
vn -0.7071 0.0000 0.7071
vn 0.7071 0.0000 0.7071
vn 0.7071 0.0000 -0.7071
# 12 vertex normals

vt 0.6885 0.3028 0.0000
vt 0.6864 0.3028 0.0000
vt 0.6864 0.0529 0.0000
vt 0.6885 0.0529 0.0000
vt 0.8324 0.3028 0.0000
vt 0.8324 0.0529 0.0000
vt 0.8346 0.0529 0.0000
vt 0.8346 0.3028 0.0000
vt 0.6864 0.0508 0.0000
vt 0.5425 0.0529 0.0000
vt 0.5425 0.0508 0.0000
vt 0.5425 0.3028 0.0000
vt 0.6864 0.3049 0.0000
vt 0.5425 0.3049 0.0000
vt 0.0488 0.1964 0.0000
vt 0.0562 0.1964 0.0000
vt 0.0562 0.4672 0.0000
vt 0.0488 0.4672 0.0000
vt 0.0633 0.1964 0.0000
vt 0.0633 0.4672 0.0000
vt 0.0344 0.1964 0.0000
vt 0.0417 0.1964 0.0000
vt 0.0417 0.4672 0.0000
vt 0.0344 0.4672 0.0000
# 24 texture coords

o Box118
g Box118
s 2
f 1/1/1 2/2/2 3/3/3 4/4/4 
s 4
f 5/5/5 6/6/6 7/7/7 8/8/8 
s 16
f 4/9/4 3/3/3 7/10/7 6/11/6 
s 32
f 3/3/3 2/2/2 8/12/8 7/10/7 
s 64
f 2/2/2 1/13/1 5/14/5 8/12/8 
s 8
f 9/15/9 10/16/10 11/17/10 12/18/9 
s 16
f 10/16/10 13/19/11 14/20/11 11/17/10 
s 32
f 13/21/11 15/22/12 16/23/12 14/24/11 
s 64
f 15/22/12 9/15/9 12/18/9 16/23/12 
s 8
f 17/15/11 18/16/12 19/17/12 20/18/11 
s 16
f 18/16/12 21/19/9 22/20/9 19/17/12 
s 32
f 21/21/9 23/22/10 24/23/10 22/24/9 
s 64
f 23/22/10 17/15/11 20/18/11 24/23/10 
s 8
f 25/15/12 26/16/9 27/17/9 28/18/12 
s 16
f 26/16/9 29/19/10 30/20/10 27/17/9 
s 32
f 29/21/10 31/22/11 32/23/11 30/24/10 
s 64
f 31/22/11 25/15/12 28/18/12 32/23/11 
s off
f 4/4/4 6/6/6 5/5/5 1/1/1 
# 18 polygons

