# 3ds Max Wavefront OBJ Exporter v0.97b - (c)2007 guruware
# File Created: 27.05.2018 14:05:38

#
# object f
#

v  -2.0000 -0.0500 0.0000
v  -2.0000 -0.0500 -1.0000
v  0.0000 -0.0500 -1.0000
v  0.0000 -0.0500 0.0000
v  -2.0000 0.0000 0.0000
v  0.0000 0.0000 0.0000
v  0.0000 0.0000 -1.0000
v  -2.0000 0.0000 -1.0000
v  -1.7919 -0.0457 -0.9617
v  -1.7659 -0.0457 -0.9617
v  -1.7659 -0.2059 -0.9617
v  -1.7919 -0.2059 -0.9617
v  -1.7659 -0.0457 -0.0917
v  -1.7659 -0.2059 -0.0917
v  -1.7919 -0.2059 -0.0917
v  -1.7919 -0.0457 -0.0917
v  -1.9919 -0.0457 -0.9617
v  -1.9659 -0.0457 -0.9617
v  -1.9659 -0.2059 -0.9617
v  -1.9919 -0.2059 -0.9617
v  -1.9659 -0.0457 -0.0917
v  -1.9659 -0.2059 -0.0917
v  -1.9919 -0.2059 -0.0917
v  -1.9919 -0.0457 -0.0917
v  -1.5919 -0.0457 -0.9617
v  -1.5659 -0.0457 -0.9617
v  -1.5659 -0.2059 -0.9617
v  -1.5919 -0.2059 -0.9617
v  -1.5659 -0.0457 -0.0917
v  -1.5659 -0.2059 -0.0917
v  -1.5919 -0.2059 -0.0917
v  -1.5919 -0.0457 -0.0917
v  -2.0000 -0.0975 -0.0623
v  -2.0000 -0.0975 -0.6323
v  0.0000 -0.0975 -0.6323
v  0.0000 -0.0975 -0.0623
v  0.0000 -0.0475 -0.0623
v  -2.0000 -0.0475 -0.0623
v  0.0000 -0.0475 -0.6323
v  -2.0000 -0.0475 -0.6323
v  -1.3919 -0.0457 -0.9617
v  -1.3659 -0.0457 -0.9617
v  -1.3659 -0.2059 -0.9617
v  -1.3919 -0.2059 -0.9617
v  -1.3659 -0.0457 -0.0917
v  -1.3659 -0.2059 -0.0917
v  -1.3919 -0.2059 -0.0917
v  -1.3919 -0.0457 -0.0917
v  -1.1919 -0.0457 -0.9617
v  -1.1659 -0.0457 -0.9617
v  -1.1659 -0.2059 -0.9617
v  -1.1919 -0.2059 -0.9617
v  -1.1659 -0.0457 -0.0917
v  -1.1659 -0.2059 -0.0917
v  -1.1919 -0.2059 -0.0917
v  -1.1919 -0.0457 -0.0917
v  -0.9919 -0.0457 -0.9617
v  -0.9659 -0.0457 -0.9617
v  -0.9659 -0.2059 -0.9617
v  -0.9919 -0.2059 -0.9617
v  -0.9659 -0.0457 -0.0917
v  -0.9659 -0.2059 -0.0917
v  -0.9919 -0.2059 -0.0917
v  -0.9919 -0.0457 -0.0917
v  -0.7919 -0.0457 -0.9617
v  -0.7659 -0.0457 -0.9617
v  -0.7659 -0.2059 -0.9617
v  -0.7919 -0.2059 -0.9617
v  -0.7659 -0.0457 -0.0917
v  -0.7659 -0.2059 -0.0917
v  -0.7919 -0.2059 -0.0917
v  -0.7919 -0.0457 -0.0917
v  -0.5919 -0.0457 -0.9617
v  -0.5659 -0.0457 -0.9617
v  -0.5659 -0.2059 -0.9617
v  -0.5919 -0.2059 -0.9617
v  -0.5659 -0.0457 -0.0917
v  -0.5659 -0.2059 -0.0917
v  -0.5919 -0.2059 -0.0917
v  -0.5919 -0.0457 -0.0917
v  -0.3919 -0.0457 -0.9617
v  -0.3659 -0.0457 -0.9617
v  -0.3659 -0.2059 -0.9617
v  -0.3919 -0.2059 -0.9617
v  -0.3659 -0.0457 -0.0917
v  -0.3659 -0.2059 -0.0917
v  -0.3919 -0.2059 -0.0917
v  -0.3919 -0.0457 -0.0917
v  -0.1919 -0.0457 -0.9617
v  -0.1659 -0.0457 -0.9617
v  -0.1659 -0.2059 -0.9617
v  -0.1919 -0.2059 -0.9617
v  -0.1659 -0.0457 -0.0917
v  -0.1659 -0.2059 -0.0917
v  -0.1919 -0.2059 -0.0917
v  -0.1919 -0.0457 -0.0917
# 96 vertices

vn -0.5774 -0.5774 0.5774
vn -0.5774 -0.5774 -0.5774
vn 0.5774 -0.5774 -0.5774
vn 0.5774 -0.5774 0.5774
vn -0.5774 0.5774 0.5774
vn 0.5774 0.5774 0.5774
vn 0.5774 0.5774 -0.5774
vn -0.5774 0.5774 -0.5774
vn -0.7071 0.0000 -0.7071
vn 0.7071 0.0000 -0.7071
vn 1.0000 0.0000 -0.0000
vn 0.7071 -0.7071 0.0000
vn -0.7071 -0.7071 0.0000
vn -1.0000 0.0000 -0.0000
vn 0.7071 0.0000 0.7071
vn -0.7071 0.0000 0.7071
# 16 vertex normals

vt 0.0724 0.3746 0.0000
vt 0.1261 0.3746 0.0000
vt 0.1261 0.4821 0.0000
vt 0.0724 0.4821 0.0000
vt 0.0724 0.3719 0.0000
vt 0.0724 0.2644 0.0000
vt 0.1261 0.2644 0.0000
vt 0.1261 0.3719 0.0000
vt 0.0697 0.3719 0.0000
vt 0.0697 0.2644 0.0000
vt 0.0724 0.2617 0.0000
vt 0.1261 0.2617 0.0000
vt 0.1288 0.3746 0.0000
vt 0.1288 0.4821 0.0000
vt 0.1383 0.5813 0.0000
vt 0.1359 0.5813 0.0000
vt 0.1359 0.5663 0.0000
vt 0.1383 0.5663 0.0000
vt 0.1209 0.4850 0.0000
vt 0.1359 0.4850 0.0000
vt 0.1209 0.5663 0.0000
vt 0.1383 0.4850 0.0000
vt 0.1533 0.4850 0.0000
vt 0.1533 0.5663 0.0000
vt 0.4157 0.1238 0.0000
vt 0.4490 0.1238 0.0000
vt 0.4490 0.2405 0.0000
vt 0.4157 0.2405 0.0000
vt 0.4128 0.2405 0.0000
vt 0.4128 0.1238 0.0000
vt 0.4490 0.2434 0.0000
vt 0.4157 0.2434 0.0000
vt 0.4519 0.1238 0.0000
vt 0.4519 0.2405 0.0000
vt 0.4155 0.1238 0.0000
vt 0.4155 0.1571 0.0000
vt 0.4126 0.1571 0.0000
vt 0.4126 0.1238 0.0000
# 38 texture coords

o f
g f
s 2
f 1/1/1 2/2/2 3/3/3 4/4/4 
s 4
f 5/5/5 6/6/6 7/7/7 8/8/8 
s 8
f 1/9/1 4/10/4 6/6/6 5/5/5 
s 16
f 4/11/4 3/12/3 7/7/7 6/6/6 
s 32
f 3/3/3 2/2/2 8/13/8 7/14/7 
s 64
f 2/2/2 1/1/1 5/5/5 8/8/8 
s 4
f 9/15/9 10/16/10 11/17/3 12/18/2 
s 16
f 13/19/11 14/20/12 11/17/3 10/21/10 
s 32
f 14/20/12 15/22/13 12/18/2 11/17/3 
s 64
f 15/22/13 16/23/14 9/24/9 12/18/2 
s 4
f 17/15/9 18/16/10 19/17/3 20/18/2 
s 16
f 21/19/11 22/20/12 19/17/3 18/21/10 
s 32
f 22/20/12 23/22/13 20/18/2 19/17/3 
s 64
f 23/22/13 24/23/14 17/24/9 20/18/2 
s 4
f 25/15/9 26/16/10 27/17/3 28/18/2 
s 16
f 29/19/11 30/20/12 27/17/3 26/21/10 
s 32
f 30/20/12 31/22/13 28/18/2 27/17/3 
s 64
f 31/22/13 32/23/14 25/24/9 28/18/2 
s 2
f 33/25/1 34/26/2 35/27/3 36/28/4 
s 8
f 33/25/1 36/28/4 37/29/15 38/30/16 
s 16
f 36/28/4 35/27/3 39/31/10 37/32/15 
s 32
f 35/27/3 34/26/2 40/33/9 39/34/10 
s 64
f 34/35/2 33/36/1 38/37/16 40/38/9 
s 4
f 41/15/9 42/16/10 43/17/3 44/18/2 
s 16
f 45/19/11 46/20/12 43/17/3 42/21/10 
s 32
f 46/20/12 47/22/13 44/18/2 43/17/3 
s 64
f 47/22/13 48/23/14 41/24/9 44/18/2 
s 4
f 49/15/9 50/16/10 51/17/3 52/18/2 
s 16
f 53/19/11 54/20/12 51/17/3 50/21/10 
s 32
f 54/20/12 55/22/13 52/18/2 51/17/3 
s 64
f 55/22/13 56/23/14 49/24/9 52/18/2 
s 4
f 57/15/9 58/16/10 59/17/3 60/18/2 
s 16
f 61/19/11 62/20/12 59/17/3 58/21/10 
s 32
f 62/20/12 63/22/13 60/18/2 59/17/3 
s 64
f 63/22/13 64/23/14 57/24/9 60/18/2 
s 4
f 65/15/9 66/16/10 67/17/3 68/18/2 
s 16
f 69/19/11 70/20/12 67/17/3 66/21/10 
s 32
f 70/20/12 71/22/13 68/18/2 67/17/3 
s 64
f 71/22/13 72/23/14 65/24/9 68/18/2 
s 4
f 73/15/9 74/16/10 75/17/3 76/18/2 
s 16
f 77/19/11 78/20/12 75/17/3 74/21/10 
s 32
f 78/20/12 79/22/13 76/18/2 75/17/3 
s 64
f 79/22/13 80/23/14 73/24/9 76/18/2 
s 4
f 81/15/9 82/16/10 83/17/3 84/18/2 
s 16
f 85/19/11 86/20/12 83/17/3 82/21/10 
s 32
f 86/20/12 87/22/13 84/18/2 83/17/3 
s 64
f 87/22/13 88/23/14 81/24/9 84/18/2 
s 4
f 89/15/9 90/16/10 91/17/3 92/18/2 
s 16
f 93/19/11 94/20/12 91/17/3 90/21/10 
s 32
f 94/20/12 95/22/13 92/18/2 91/17/3 
s 64
f 95/22/13 96/23/14 89/24/9 92/18/2 
# 51 polygons

