# 3ds Max Wavefront OBJ Exporter v0.97b - (c)2007 guruware
# File Created: 22.02.2018 15:35:46

#
# object Box446
#

v  -4.3405 7.8506 1.0542
v  -4.3405 7.8506 -1.0547
v  -3.8865 6.2056 -1.0542
v  -3.8865 6.2056 1.0547
v  -3.2448 4.7033 -1.0542
v  -3.2448 4.7033 1.0547
v  -2.2486 2.8249 -1.0542
v  -2.2486 2.8249 1.0547
v  -1.0637 1.0043 -1.0542
v  -1.0637 1.0043 1.0547
v  0.0017 -0.3496 -1.0542
v  0.0017 -0.3496 1.0547
v  0.4280 -0.8740 -1.0542
v  0.4280 -0.8740 1.0547
v  1.5366 -1.9157 1.0547
v  1.5366 -1.9157 -1.0542
v  2.1242 -2.4253 -1.0542
v  2.1242 -2.4253 1.0547
v  3.2166 -2.9073 1.0547
v  3.2166 -2.9073 -1.0542
v  4.3405 -3.2771 -1.0542
v  4.3405 -3.2771 1.0547
v  -4.3405 7.9006 1.0542
v  -3.8865 6.2556 1.0547
v  -3.8865 6.2556 -1.0542
v  -4.3405 7.9006 -1.0547
v  -3.2448 4.7533 1.0547
v  -3.2448 4.7533 -1.0542
v  -2.2486 2.8749 1.0547
v  -2.2486 2.8749 -1.0542
v  -1.0637 1.0543 1.0547
v  -1.0637 1.0543 -1.0542
v  0.0017 -0.2996 1.0547
v  0.0017 -0.2996 -1.0542
v  0.4280 -0.8240 1.0547
v  0.4280 -0.8240 -1.0542
v  1.5366 -1.8657 1.0547
v  2.1242 -2.3753 1.0547
v  2.1242 -2.3753 -1.0542
v  1.5366 -1.8657 -1.0542
v  3.2166 -2.8573 1.0547
v  4.3405 -3.2271 1.0547
v  4.3405 -3.2271 -1.0542
v  3.2166 -2.8573 -1.0542
# 44 vertices

vn -0.7288 -0.0986 0.6776
vn -0.7279 -0.0987 -0.6786
vn -0.6811 -0.2383 -0.6923
vn -0.6812 -0.2382 0.6923
vn -0.6463 -0.3088 -0.6978
vn -0.6463 -0.3088 0.6978
vn -0.6177 -0.3638 -0.6972
vn -0.6177 -0.3638 0.6972
vn -0.5827 -0.4176 -0.6972
vn -0.5827 -0.4176 0.6972
vn -0.5536 -0.4428 -0.7053
vn -0.5536 -0.4428 0.7053
vn -0.5282 -0.4916 -0.6924
vn -0.5282 -0.4916 0.6924
vn -0.4768 -0.5281 0.7026
vn -0.4768 -0.5281 -0.7026
vn -0.3950 -0.6231 -0.6751
vn -0.3950 -0.6231 0.6751
vn -0.2573 -0.6700 0.6963
vn -0.2573 -0.6700 -0.6963
vn 0.4848 -0.6697 -0.5625
vn 0.4848 -0.6697 0.5625
vn -0.1131 0.8353 0.5381
vn 0.6520 0.2284 0.7230
vn 0.6531 0.2281 -0.7221
vn -0.1131 0.8351 -0.5383
vn 0.6293 0.3006 0.7167
vn 0.6293 0.3006 -0.7167
vn 0.6003 0.3536 0.7174
vn 0.6003 0.3536 -0.7174
vn 0.5663 0.4058 0.7174
vn 0.5663 0.4058 -0.7174
vn 0.5508 0.4406 0.7089
vn 0.5508 0.4406 -0.7089
vn 0.5061 0.4711 0.7225
vn 0.5061 0.4711 -0.7225
vn 0.4708 0.5215 0.7116
vn 0.3588 0.5660 0.7422
vn 0.3588 0.5660 -0.7422
vn 0.4708 0.5215 -0.7116
vn 0.2495 0.6495 0.7183
vn 0.6506 0.4707 0.5960
vn 0.6506 0.4707 -0.5960
vn 0.2495 0.6495 -0.7183
# 44 vertex normals

vt 1.0000 0.0000 0.0000
vt 1.0000 1.0000 0.0000
vt 0.8750 1.0000 0.0000
vt 0.8750 0.0000 0.0000
vt 0.7500 1.0000 0.0000
vt 0.7500 0.0000 0.0000
vt 0.6250 1.0000 0.0000
vt 0.6250 0.0000 0.0000
vt 0.5000 1.0000 0.0000
vt 0.5000 0.0000 0.0000
vt 0.3750 1.0000 0.0000
vt 0.3750 0.0000 0.0000
vt 0.3507 1.0000 0.0000
vt 0.3507 0.0000 0.0000
vt 0.2500 0.0000 0.0000
vt 0.2500 1.0000 0.0000
vt 0.2170 1.0000 0.0000
vt 0.2170 0.0000 0.0000
vt 0.1250 0.0000 0.0000
vt 0.1250 1.0000 0.0000
vt 0.0000 1.0000 0.0000
vt 0.0000 0.0000 0.0000
vt 0.6493 0.0000 0.0000
vt 0.6493 1.0000 0.0000
vt 0.7830 0.0000 0.0000
vt 0.7830 1.0000 0.0000
# 26 texture coords

o Box446
g Box446
s 2
f 1/1/1 2/2/2 3/3/3 4/4/4 
f 4/4/4 3/3/3 5/5/5 6/6/6 
f 6/6/6 5/5/5 7/7/7 8/8/8 
f 8/8/8 7/7/7 9/9/9 10/10/10 
f 10/10/10 9/9/9 11/11/11 12/12/12 
f 12/12/12 11/11/11 13/13/13 14/14/14 
f 15/15/15 16/16/16 17/17/17 18/18/18 
f 19/19/19 20/20/20 21/21/21 22/22/22 
s 4
f 23/22/23 24/19/24 25/20/25 26/21/26 
f 24/19/24 27/15/27 28/16/28 25/20/25 
f 27/15/27 29/12/29 30/11/30 28/16/28 
f 29/12/29 31/10/31 32/9/32 30/11/30 
f 31/10/31 33/8/33 34/7/34 32/9/32 
f 33/8/33 35/23/35 36/24/36 34/7/34 
f 37/6/37 38/25/38 39/26/39 40/5/40 
f 41/4/41 42/1/42 43/2/43 44/3/44 
s 8
f 1/22/1 4/19/4 24/20/24 23/21/23 
f 4/19/4 6/15/6 27/16/27 24/20/24 
f 6/15/6 8/12/8 29/11/29 27/16/27 
f 8/12/8 10/10/10 31/9/31 29/11/29 
f 10/10/10 12/8/12 33/7/33 31/9/31 
f 12/8/12 14/23/14 35/24/35 33/7/33 
f 15/6/15 18/25/18 38/26/38 37/5/37 
f 19/4/19 22/1/22 42/2/42 41/3/41 
s 16
f 22/22/22 21/1/21 43/2/43 42/21/42 
s 32
f 21/22/21 20/19/20 44/20/44 43/21/43 
f 20/19/20 17/18/17 39/17/39 44/20/44 
f 16/15/16 13/14/13 36/13/36 40/16/40 
f 11/12/11 9/10/9 32/9/32 34/11/34 
f 9/10/9 7/8/7 30/7/30 32/9/32 
f 7/8/7 5/6/5 28/5/28 30/7/30 
f 5/6/5 3/4/3 25/3/25 28/5/28 
f 3/4/3 2/1/2 26/2/26 25/3/25 
s 64
f 2/22/2 1/1/1 23/2/23 26/21/26 
s 2
f 17/17/17 20/20/20 19/19/19 18/18/18 
s 4
f 38/25/38 41/4/41 44/3/44 39/26/39 
s 8
f 18/25/18 19/4/19 41/3/41 38/26/38 
s 32
f 17/18/17 16/15/16 40/16/40 39/17/39 
s 2
f 13/13/13 16/16/16 15/15/15 14/14/14 
s 4
f 35/23/35 37/6/37 40/5/40 36/24/36 
s 8
f 14/23/14 15/6/15 37/5/37 35/24/35 
s 32
f 13/14/13 11/12/11 34/11/34 36/13/36 
# 42 polygons

