# 3ds Max Wavefront OBJ Exporter v0.97b - (c)2007 guruware
# File Created: 22.02.2018 15:35:33

#
# object Box447
#

v  -4.6940 7.7787 0.2793
v  -4.6940 7.7787 -0.2799
v  -4.2401 6.1336 -0.2793
v  -4.2401 6.1336 0.2799
v  -3.2241 4.1896 -0.2793
v  -3.2241 4.1896 0.2799
v  -2.1321 2.5530 -0.2793
v  -2.1321 2.5530 0.2799
v  -0.7764 0.9033 -0.2793
v  -0.7764 0.9033 0.2799
v  0.3172 -0.4211 -0.2793
v  0.3172 -0.4211 0.2799
v  0.7435 -0.9455 -0.2793
v  0.7435 -0.9455 0.2799
v  1.8901 -1.9877 0.2799
v  1.8901 -1.9877 -0.2793
v  2.4777 -2.4973 -0.2793
v  2.4777 -2.4973 0.2799
v  3.5701 -2.9793 0.2799
v  3.5701 -2.9793 -0.2793
v  4.6940 -3.3491 -0.2793
v  4.6940 -3.3491 0.2799
v  -4.6940 7.8287 0.2793
v  -4.2401 6.1836 0.2799
v  -4.2401 6.1836 -0.2793
v  -4.6940 7.8287 -0.2799
v  -3.2241 4.2396 0.2799
v  -3.2241 4.2396 -0.2793
v  -2.1321 2.6030 0.2799
v  -2.1321 2.6030 -0.2793
v  -0.7764 0.9533 0.2799
v  -0.7764 0.9533 -0.2793
v  0.3172 -0.3711 0.2799
v  0.3172 -0.3711 -0.2793
v  0.7435 -0.8955 0.2799
v  0.7435 -0.8955 -0.2793
v  1.8901 -1.9377 0.2799
v  2.4777 -2.4473 0.2799
v  2.4777 -2.4473 -0.2793
v  1.8901 -1.9377 -0.2793
v  3.5701 -2.9293 0.2799
v  4.6940 -3.2991 0.2799
v  4.6940 -3.2991 -0.2793
v  3.5701 -2.9293 -0.2793
v  1.2926 -1.5253 -0.2793
v  1.2926 -1.4753 -0.2793
v  1.2926 -1.5253 0.2799
v  1.2926 -1.4753 0.2799
# 48 vertices

vn -0.7288 -0.0986 0.6776
vn -0.7279 -0.0987 -0.6786
vn -0.6787 -0.2675 -0.6840
vn -0.6787 -0.2674 0.6840
vn -0.6183 -0.3664 -0.6953
vn -0.6183 -0.3664 0.6953
vn -0.5766 -0.4277 -0.6961
vn -0.5766 -0.4277 0.6961
vn -0.5459 -0.4497 -0.7069
vn -0.5459 -0.4497 0.7069
vn -0.5463 -0.4476 -0.7080
vn -0.5463 -0.4476 0.7080
vn -0.5377 -0.4719 -0.6987
vn -0.5377 -0.4719 0.6987
vn -0.4441 -0.5420 0.7134
vn -0.4441 -0.5420 -0.7134
vn -0.3950 -0.6231 -0.6751
vn -0.3950 -0.6231 0.6751
vn -0.2573 -0.6700 0.6963
vn -0.2573 -0.6700 -0.6963
vn 0.4848 -0.6697 -0.5625
vn 0.4848 -0.6697 0.5625
vn -0.1131 0.8353 0.5381
vn 0.6336 0.2500 0.7322
vn 0.6346 0.2498 -0.7313
vn -0.1131 0.8351 -0.5383
vn 0.5976 0.3541 0.7194
vn 0.5976 0.3541 -0.7194
vn 0.5586 0.4143 0.7185
vn 0.5586 0.4143 -0.7185
vn 0.5455 0.4494 0.7075
vn 0.5455 0.4494 -0.7075
vn 0.5476 0.4487 0.7063
vn 0.5476 0.4487 -0.7063
vn 0.5249 0.4607 0.7157
vn 0.5249 0.4607 -0.7157
vn 0.4521 0.5517 0.7009
vn 0.3588 0.5660 0.7422
vn 0.3588 0.5660 -0.7422
vn 0.4521 0.5517 -0.7009
vn 0.2495 0.6495 0.7183
vn 0.6506 0.4707 0.5960
vn 0.6506 0.4707 -0.5960
vn 0.2495 0.6495 -0.7183
vn -0.4856 -0.5365 -0.6902
vn 0.4623 0.5108 -0.7248
vn -0.4856 -0.5365 0.6902
vn 0.4623 0.5108 0.7248
# 48 vertex normals

vt 1.0000 0.0000 0.0000
vt 1.0000 1.0000 0.0000
vt 0.8750 1.0000 0.0000
vt 0.8750 0.0000 0.0000
vt 0.7500 1.0000 0.0000
vt 0.7500 0.0000 0.0000
vt 0.6250 1.0000 0.0000
vt 0.6250 0.0000 0.0000
vt 0.5000 1.0000 0.0000
vt 0.5000 0.0000 0.0000
vt 0.3750 1.0000 0.0000
vt 0.3750 0.0000 0.0000
vt 0.3507 1.0000 0.0000
vt 0.3507 0.0000 0.0000
vt 0.2500 0.0000 0.0000
vt 0.2500 1.0000 0.0000
vt 0.2170 1.0000 0.0000
vt 0.2170 0.0000 0.0000
vt 0.1250 0.0000 0.0000
vt 0.1250 1.0000 0.0000
vt 0.0000 1.0000 0.0000
vt 0.0000 0.0000 0.0000
vt 0.6493 0.0000 0.0000
vt 0.6493 1.0000 0.0000
vt 0.7830 0.0000 0.0000
vt 0.7830 1.0000 0.0000
vt 0.3215 0.0000 0.0000
vt 0.3215 1.0000 0.0000
vt 0.6785 0.0000 0.0000
vt 0.6785 1.0000 0.0000
# 30 texture coords

o Box447
g Box447
s 2
f 1/1/1 2/2/2 3/3/3 4/4/4 
f 4/4/4 3/3/3 5/5/5 6/6/6 
f 6/6/6 5/5/5 7/7/7 8/8/8 
f 8/8/8 7/7/7 9/9/9 10/10/10 
f 10/10/10 9/9/9 11/11/11 12/12/12 
f 12/12/12 11/11/11 13/13/13 14/14/14 
f 15/15/15 16/16/16 17/17/17 18/18/18 
f 19/19/19 20/20/20 21/21/21 22/22/22 
s 4
f 23/22/23 24/19/24 25/20/25 26/21/26 
f 24/19/24 27/15/27 28/16/28 25/20/25 
f 27/15/27 29/12/29 30/11/30 28/16/28 
f 29/12/29 31/10/31 32/9/32 30/11/30 
f 31/10/31 33/8/33 34/7/34 32/9/32 
f 33/8/33 35/23/35 36/24/36 34/7/34 
f 37/6/37 38/25/38 39/26/39 40/5/40 
f 41/4/41 42/1/42 43/2/43 44/3/44 
s 8
f 1/22/1 4/19/4 24/20/24 23/21/23 
f 4/19/4 6/15/6 27/16/27 24/20/24 
f 6/15/6 8/12/8 29/11/29 27/16/27 
f 8/12/8 10/10/10 31/9/31 29/11/29 
f 10/10/10 12/8/12 33/7/33 31/9/31 
f 12/8/12 14/23/14 35/24/35 33/7/33 
f 15/6/15 18/25/18 38/26/38 37/5/37 
f 19/4/19 22/1/22 42/2/42 41/3/41 
s 16
f 22/22/22 21/1/21 43/2/43 42/21/42 
s 32
f 21/22/21 20/19/20 44/20/44 43/21/43 
f 20/19/20 17/18/17 39/17/39 44/20/44 
f 16/15/16 45/27/45 46/28/46 40/16/40 
f 11/12/11 9/10/9 32/9/32 34/11/34 
f 9/10/9 7/8/7 30/7/30 32/9/32 
f 7/8/7 5/6/5 28/5/28 30/7/30 
f 5/6/5 3/4/3 25/3/25 28/5/28 
f 3/4/3 2/1/2 26/2/26 25/3/25 
s 64
f 2/22/2 1/1/1 23/2/23 26/21/26 
s 2
f 17/17/17 20/20/20 19/19/19 18/18/18 
s 4
f 38/25/38 41/4/41 44/3/44 39/26/39 
s 8
f 18/25/18 19/4/19 41/3/41 38/26/38 
s 32
f 17/18/17 16/15/16 40/16/40 39/17/39 
s 2
f 13/13/13 45/28/45 47/27/47 14/14/14 
s 4
f 35/23/35 48/29/48 46/30/46 36/24/36 
s 8
f 14/23/14 47/29/47 48/30/48 35/24/35 
s 32
f 13/14/13 11/12/11 34/11/34 36/13/36 
f 45/27/45 13/14/13 36/13/36 46/28/46 
s 2
f 45/28/45 16/16/16 15/15/15 47/27/47 
s 4
f 48/29/48 37/6/37 40/5/40 46/30/46 
s 8
f 47/29/47 15/6/15 37/5/37 48/30/48 
# 46 polygons

